<svg width="27" height="27" viewBox="0 0 27 27" fill="none" xmlns="http://www.w3.org/2000/svg">
<g clip-path="url(#clip0_6830_4672)">
<path d="M25.2477 4.76563H1.75227C1.06177 4.76563 0.5 5.32739 0.5 6.0179V19.5717C0.5 20.2289 1.009 20.7691 1.65349 20.8196V20.9642C1.65349 21.6548 2.21526 22.2163 2.90576 22.2163H24.1541C24.8445 22.2163 25.4062 21.6548 25.4062 20.9642V20.8135C26.0221 20.7353 26.5 20.2085 26.5 19.5717V6.0179C26.5 5.32739 25.9382 4.76562 25.2477 4.76562V4.76563ZM25.7139 19.5717C25.7139 19.8288 25.5048 20.0377 25.2477 20.0377H5.63148C5.41428 20.0377 5.23833 20.2138 5.23833 20.4308C5.23833 20.6481 5.41428 20.824 5.63148 20.824H24.6201V20.9642C24.6201 21.2213 24.411 21.4302 24.1541 21.4302H2.90576C2.64868 21.4302 2.43961 21.2213 2.43961 20.9642V20.824H3.83192C4.04913 20.824 4.22508 20.6481 4.22508 20.4308C4.22508 20.2138 4.04913 20.0377 3.83192 20.0377H1.75227C1.49519 20.0377 1.28612 19.8288 1.28612 19.5717V6.0179C1.28612 5.76082 1.49519 5.55174 1.75227 5.55174H25.2477C25.5048 5.55174 25.7139 5.76082 25.7139 6.0179V19.5717Z" fill="currentColor"/>
<path d="M9.55357 10.8916H3.45149C2.91154 10.8916 2.47217 11.331 2.47217 11.8709V17.973C2.47217 18.513 2.91154 18.9523 3.45149 18.9523H9.55357C10.0935 18.9523 10.5329 18.513 10.5329 17.973V11.8709C10.5329 11.3308 10.0935 10.8916 9.55357 10.8916ZM5.0031 18.1662V17.249C5.0031 17.0474 5.16714 16.8834 5.36868 16.8834H7.51935C7.72089 16.8834 7.88493 17.0472 7.88493 17.249V18.1662H5.0031ZM9.74678 17.973C9.74678 18.0795 9.6601 18.1662 9.55357 18.1662H8.67105V17.249C8.67105 16.6138 8.15451 16.0973 7.51935 16.0973H5.36868C4.73372 16.0973 4.21698 16.6138 4.21698 17.249V18.1662H3.45149C3.34497 18.1662 3.25829 18.0795 3.25829 17.973V11.8709C3.25829 11.7644 3.34497 11.6777 3.45149 11.6777H9.55357C9.6601 11.6777 9.74678 11.7644 9.74678 11.8709V17.973Z" fill="currentColor"/>
<path d="M6.44392 12.3602C5.62924 12.3602 4.96631 13.023 4.96631 13.8378C4.96631 14.6525 5.62924 15.3155 6.44392 15.3155C7.2588 15.3155 7.92154 14.6525 7.92154 13.8378C7.92154 13.023 7.25861 12.3602 6.44392 12.3602ZM6.44392 14.5291C6.06267 14.5291 5.75262 14.2189 5.75262 13.8376C5.75262 13.4564 6.06267 13.1463 6.44392 13.1463C6.82518 13.1463 7.13542 13.4564 7.13542 13.8376C7.13542 14.2189 6.82518 14.5291 6.44392 14.5291Z" fill="currentColor"/>
<path d="M9.55406 10.8916H3.45198C2.91203 10.8916 2.47266 11.331 2.47266 11.8709V17.973C2.47266 18.513 2.91203 18.9523 3.45198 18.9523H9.55406C10.094 18.9523 10.5334 18.513 10.5334 17.973V11.8709C10.5334 11.3308 10.094 10.8916 9.55406 10.8916ZM5.00359 18.1662V17.249C5.00359 17.0474 5.16763 16.8834 5.36917 16.8834H7.51984C7.72137 16.8834 7.88542 17.0472 7.88542 17.249V18.1662H5.00359ZM9.74727 17.973C9.74727 18.0795 9.66058 18.1662 9.55406 18.1662H8.67154V17.249C8.67154 16.6138 8.155 16.0973 7.51984 16.0973H5.36917C4.73421 16.0973 4.21747 16.6138 4.21747 17.249V18.1662H3.45198C3.34546 18.1662 3.25877 18.0795 3.25877 17.973V11.8709C3.25877 11.7644 3.34546 11.6777 3.45198 11.6777H9.55406C9.66058 11.6777 9.74727 11.7644 9.74727 11.8709V17.973Z" fill="currentColor"/>
<path d="M6.44441 12.3604C5.62973 12.3604 4.9668 13.0231 4.9668 13.838C4.9668 14.6526 5.62973 15.3156 6.44441 15.3156C7.25929 15.3156 7.92203 14.6526 7.92203 13.838C7.92203 13.0231 7.25909 12.3604 6.44441 12.3604ZM6.44441 14.5293C6.06316 14.5293 5.75311 14.219 5.75311 13.8378C5.75311 13.4565 6.06316 13.1465 6.44441 13.1465C6.82567 13.1465 7.13591 13.4565 7.13591 13.8378C7.13591 14.219 6.82567 14.5293 6.44441 14.5293Z" fill="currentColor"/>
<path d="M24.1201 11.2015H12.1217C11.9045 11.2015 11.7285 11.3775 11.7285 11.5945C11.7285 11.8117 11.9045 11.9877 12.1217 11.9877H24.1203C24.3373 11.9877 24.5133 11.8117 24.5133 11.5945C24.5133 11.3775 24.3373 11.2015 24.1201 11.2015Z" fill="currentColor"/>
<path d="M12.1217 13.761H19.8928C20.1098 13.761 20.2859 13.5851 20.2859 13.3679C20.2859 13.1507 20.1098 12.9747 19.8928 12.9747H12.1217C11.9045 12.9747 11.7285 13.1507 11.7285 13.3679C11.7285 13.5851 11.9045 13.761 12.1217 13.761Z" fill="currentColor"/>
<path d="M15.2378 14.7201H12.1217C11.9045 14.7201 11.7285 14.896 11.7285 15.1131C11.7285 15.3303 11.9045 15.5062 12.1217 15.5062H15.2378C15.4548 15.5062 15.6309 15.3303 15.6309 15.1131C15.6309 14.896 15.4548 14.7201 15.2378 14.7201Z" fill="currentColor"/>
<path d="M23.4327 6.71887H22.0972C21.8799 6.71887 21.704 6.89482 21.704 7.11203C21.704 7.32924 21.8799 7.50519 22.0972 7.50519H23.4327C23.595 7.50519 23.7269 7.6371 23.7269 7.79916V7.88525C23.7269 8.04732 23.595 8.17923 23.4327 8.17923H3.29123C3.12917 8.17923 2.99725 8.04732 2.99725 7.88525V7.79916C2.99725 7.6371 3.12917 7.50519 3.29123 7.50519H20.1665C20.3837 7.50519 20.5596 7.32924 20.5596 7.11203C20.5596 6.89482 20.3837 6.71887 20.1665 6.71887H3.29123C2.69554 6.71887 2.21094 7.20348 2.21094 7.79916V7.88525C2.21094 8.48074 2.69554 8.96555 3.29123 8.96555H23.4327C24.0284 8.96555 24.513 8.48074 24.513 7.88525V7.79916C24.513 7.20348 24.0284 6.71887 23.4327 6.71887Z" fill="currentColor"/>
<path d="M23.9217 16.6395C23.5383 16.9291 23.0279 17.3387 22.5191 17.1557C22.2667 17.0648 22.0388 16.9944 21.7831 17.1344C21.7203 17.1691 21.6594 17.2104 21.5998 17.2552C21.5582 16.971 21.2882 16.7845 21.0113 16.9337C20.8195 17.037 20.6221 17.1215 20.4164 17.1866C20.5501 16.8188 20.5971 16.3757 20.4438 16.0093C20.2549 15.5582 19.7489 15.3997 19.3169 15.6148C18.9362 15.8038 18.6155 16.2678 18.4639 16.6548C18.3044 17.0624 18.3871 17.5016 18.7198 17.7978C18.7559 17.8299 18.7936 17.8585 18.8321 17.8854C18.5609 18.0576 18.263 18.1927 17.9726 18.3199C17.7766 18.4055 17.7353 18.6886 17.8315 18.8576C17.9466 19.0596 18.1761 19.0834 18.3695 18.9987C18.8821 18.7743 19.3911 18.502 19.7908 18.1215C20.1585 18.1024 20.5406 17.9949 20.8818 17.8587C20.8891 17.9241 20.8963 17.9898 20.9036 18.0552C20.9417 18.3966 21.3039 18.57 21.5747 18.3331C21.6927 18.23 21.8107 18.1268 21.9287 18.0237C21.9811 17.9779 22.0331 17.9313 22.086 17.886C22.1511 17.8305 22.0688 17.8245 22.1697 17.8557C22.4173 17.9326 22.6317 18.011 22.8981 17.985C23.4349 17.9326 23.8981 17.6357 24.3186 17.3183C24.4892 17.1894 24.5733 16.9805 24.4595 16.7805C24.3641 16.6127 24.0909 16.512 23.9217 16.6395ZM19.2211 16.8783C19.3072 16.6998 19.4889 16.3846 19.6852 16.3096C19.6963 16.3053 19.71 16.3029 19.7233 16.3031C19.7037 16.3088 19.7364 16.3596 19.7424 16.3959C19.7618 16.5159 19.7509 16.6421 19.7253 16.7601C19.6821 16.9591 19.5902 17.1485 19.4696 17.3138C19.441 17.3076 19.4133 17.3003 19.3861 17.2905C19.178 17.2166 19.1245 17.0789 19.2211 16.8783Z" fill="currentColor"/>
</g>
<defs>
<clipPath id="clip0_6830_4672">
<rect width="26" height="26" fill="white" transform="translate(0.5 0.5)"/>
</clipPath>
</defs>
</svg>
