<svg width="21" height="22" viewBox="0 0 21 22" fill="none" xmlns="http://www.w3.org/2000/svg">
<path d="M19.828 7.16867L12.4198 0.785806C11.3615 -0.249484 9.63848 -0.249484 8.62391 0.743025L1.12828 7.21145C0.402332 7.92161 0 8.87134 0 9.88096V18.4285C0 19.8488 1.18076 21.0039 2.63265 21.0039H18.3761C19.8192 21.0039 21 19.8488 21 18.4285V9.88096C21 8.87134 20.5977 7.92161 19.828 7.16867ZM19.2507 18.4285C19.2507 18.9077 18.8571 19.2927 18.3761 19.2927H12.8309V13.7825C12.8309 13.2863 12.4286 12.8927 11.9213 12.8927H9.07872C8.58018 12.8927 8.1691 13.2863 8.1691 13.7825V19.2927H2.63265C2.14286 19.2927 1.74927 18.9077 1.74927 18.4285V9.88096C1.74927 9.34192 1.97668 8.80289 2.32653 8.45208L9.82216 1.99222C10.0058 1.81254 10.242 1.71842 10.4869 1.71842C10.7493 1.71842 11.0117 1.8211 11.2216 2.02644L18.6297 8.41786C19.0321 8.81144 19.2507 9.33336 19.2507 9.88096V18.4285Z" fill="currentColor"/>
</svg>
