<svg width="18" height="22" viewBox="0 0 18 22" fill="none" xmlns="http://www.w3.org/2000/svg">
<path d="M15 8.31786C15 6.76357 14.3679 5.27294 13.2426 4.17389C12.1174 3.07483 10.5913 2.45739 9 2.45739C7.4087 2.45739 5.88258 3.07483 4.75736 4.17389C3.63214 5.27294 3 6.76357 3 8.31786V16.1318H15V8.31786ZM17 16.7833L17.4 17.3039C17.4557 17.3765 17.4896 17.4627 17.498 17.5531C17.5063 17.6434 17.4887 17.7342 17.4472 17.8153C17.4057 17.8965 17.3419 17.9647 17.2629 18.0124C17.1839 18.06 17.0929 18.0853 17 18.0853H1C0.907144 18.0853 0.816123 18.06 0.737135 18.0124C0.658147 17.9647 0.594313 17.8965 0.552787 17.8153C0.51126 17.7342 0.493682 17.6434 0.502021 17.5531C0.51036 17.4627 0.544287 17.3765 0.6 17.3039L1 16.7833V8.31786C1 6.24547 1.84286 4.25796 3.34315 2.79256C4.84344 1.32716 6.87827 0.503906 9 0.503906C11.1217 0.503906 13.1566 1.32716 14.6569 2.79256C16.1571 4.25796 17 6.24547 17 8.31786V16.7833ZM6.5 19.062H11.5C11.5 19.7097 11.2366 20.3308 10.7678 20.7887C10.2989 21.2466 9.66304 21.5039 9 21.5039C8.33696 21.5039 7.70107 21.2466 7.23223 20.7887C6.76339 20.3308 6.5 19.7097 6.5 19.062Z" fill="currentColor"/>
</svg>
